<mxfile host="app.diagrams.net" modified="2024-03-22T06:26:37.919Z" agent="Mozilla/5.0 (Windows NT 10.0; Win64; x64) AppleWebKit/537.36 (KHTML, like Gecko) Chrome/122.0.0.0 Safari/537.36" etag="M1ylcESW9cbdP_RHSmys" version="24.0.7" type="github">
  <diagram name="第 1 页" id="q-8pmeE1RV_tcGrw_37l">
    <mxGraphModel dx="1434" dy="738" grid="1" gridSize="10" guides="1" tooltips="1" connect="1" arrows="1" fold="1" page="1" pageScale="1" pageWidth="827" pageHeight="1169" math="0" shadow="0">
      <root>
        <mxCell id="0" />
        <mxCell id="1" parent="0" />
        <mxCell id="I3WCL8Kk21TBKCjXJNJt-57" value="" style="rounded=0;whiteSpace=wrap;html=1;fontSize=20;fontFamily=Times New Roman;" parent="1" vertex="1">
          <mxGeometry x="132" y="200" width="208" height="40" as="geometry" />
        </mxCell>
        <mxCell id="I3WCL8Kk21TBKCjXJNJt-1" value="" style="endArrow=classic;html=1;rounded=0;fontSize=20;strokeWidth=2;fontFamily=Times New Roman;" parent="1" edge="1">
          <mxGeometry width="50" height="50" relative="1" as="geometry">
            <mxPoint x="80" y="220" as="sourcePoint" />
            <mxPoint x="400" y="220" as="targetPoint" />
          </mxGeometry>
        </mxCell>
        <mxCell id="I3WCL8Kk21TBKCjXJNJt-2" value="" style="rounded=0;whiteSpace=wrap;html=1;fontSize=20;strokeWidth=1.5;strokeColor=#4D4D4D;fontFamily=Times New Roman;" parent="1" vertex="1">
          <mxGeometry x="90" y="250" width="100" height="30" as="geometry" />
        </mxCell>
        <mxCell id="I3WCL8Kk21TBKCjXJNJt-3" value="" style="rounded=0;whiteSpace=wrap;html=1;fontSize=20;strokeWidth=1.5;strokeColor=#4D4D4D;fontFamily=Times New Roman;" parent="1" vertex="1">
          <mxGeometry x="162" y="290" width="90" height="30" as="geometry" />
        </mxCell>
        <mxCell id="I3WCL8Kk21TBKCjXJNJt-6" value="" style="endArrow=none;html=1;strokeWidth=1.5;rounded=0;fontSize=20;dashed=1;fontFamily=Times New Roman;" parent="1" edge="1">
          <mxGeometry width="50" height="50" relative="1" as="geometry">
            <mxPoint x="80" y="480" as="sourcePoint" />
            <mxPoint x="80" y="220" as="targetPoint" />
          </mxGeometry>
        </mxCell>
        <mxCell id="I3WCL8Kk21TBKCjXJNJt-7" value="m&lt;sub style=&quot;font-size: 20px;&quot;&gt;&lt;font style=&quot;font-size: 20px;&quot;&gt;1&lt;/font&gt;&lt;/sub&gt;" style="text;html=1;align=center;verticalAlign=middle;resizable=0;points=[];autosize=1;strokeColor=none;fillColor=none;fontSize=20;strokeWidth=1.5;fontFamily=Times New Roman;" parent="1" vertex="1">
          <mxGeometry x="15" y="240" width="50" height="40" as="geometry" />
        </mxCell>
        <mxCell id="I3WCL8Kk21TBKCjXJNJt-8" value="m&lt;sub style=&quot;font-size: 20px;&quot;&gt;&lt;font style=&quot;font-size: 20px;&quot;&gt;2&lt;/font&gt;&lt;/sub&gt;" style="text;html=1;align=center;verticalAlign=middle;resizable=0;points=[];autosize=1;strokeColor=none;fillColor=none;fontSize=20;strokeWidth=1.5;fontFamily=Times New Roman;" parent="1" vertex="1">
          <mxGeometry x="15" y="280" width="50" height="40" as="geometry" />
        </mxCell>
        <mxCell id="I3WCL8Kk21TBKCjXJNJt-9" value="m&lt;sub style=&quot;font-size: 20px;&quot;&gt;&lt;font style=&quot;font-size: 20px;&quot;&gt;3&lt;/font&gt;&lt;/sub&gt;" style="text;html=1;align=center;verticalAlign=middle;resizable=0;points=[];autosize=1;strokeColor=none;fillColor=none;fontSize=20;strokeWidth=1.5;fontFamily=Times New Roman;" parent="1" vertex="1">
          <mxGeometry x="15" y="320" width="50" height="40" as="geometry" />
        </mxCell>
        <mxCell id="I3WCL8Kk21TBKCjXJNJt-10" value="Sen&lt;sub style=&quot;font-size: 20px;&quot;&gt;i&lt;/sub&gt;" style="text;html=1;align=center;verticalAlign=middle;resizable=0;points=[];autosize=1;strokeColor=none;fillColor=none;fontSize=20;strokeWidth=1.5;fontFamily=Times New Roman;" parent="1" vertex="1">
          <mxGeometry x="10" y="199" width="60" height="40" as="geometry" />
        </mxCell>
        <mxCell id="I3WCL8Kk21TBKCjXJNJt-11" value="t" style="text;html=1;align=center;verticalAlign=middle;resizable=0;points=[];autosize=1;strokeColor=none;fillColor=none;fontSize=20;strokeWidth=1.5;fontFamily=Times New Roman;" parent="1" vertex="1">
          <mxGeometry x="399" y="199" width="30" height="40" as="geometry" />
        </mxCell>
        <mxCell id="I3WCL8Kk21TBKCjXJNJt-26" value="&lt;font style=&quot;font-size: 20px;&quot;&gt;...&lt;/font&gt;" style="text;html=1;align=center;verticalAlign=middle;resizable=0;points=[];autosize=1;strokeColor=none;fillColor=none;fontFamily=Times New Roman;fontSize=20;" parent="1" vertex="1">
          <mxGeometry x="20" y="440" width="40" height="40" as="geometry" />
        </mxCell>
        <mxCell id="I3WCL8Kk21TBKCjXJNJt-27" value="" style="endArrow=none;html=1;rounded=0;strokeWidth=2;fontFamily=Times New Roman;fontSize=20;" parent="1" edge="1">
          <mxGeometry width="50" height="50" relative="1" as="geometry">
            <mxPoint x="80" y="234" as="sourcePoint" />
            <mxPoint x="80" y="204" as="targetPoint" />
          </mxGeometry>
        </mxCell>
        <mxCell id="I3WCL8Kk21TBKCjXJNJt-28" value="" style="endArrow=none;html=1;rounded=0;strokeWidth=2;fontFamily=Times New Roman;fontSize=20;" parent="1" edge="1">
          <mxGeometry width="50" height="50" relative="1" as="geometry">
            <mxPoint x="399" y="236" as="sourcePoint" />
            <mxPoint x="399" y="206" as="targetPoint" />
          </mxGeometry>
        </mxCell>
        <mxCell id="I3WCL8Kk21TBKCjXJNJt-32" value="" style="rounded=0;whiteSpace=wrap;html=1;fontSize=20;strokeWidth=1.5;strokeColor=#4D4D4D;fontFamily=Times New Roman;" parent="1" vertex="1">
          <mxGeometry x="230" y="370" width="100" height="30" as="geometry" />
        </mxCell>
        <mxCell id="I3WCL8Kk21TBKCjXJNJt-34" value="m&lt;sub style=&quot;font-size: 20px;&quot;&gt;&lt;font style=&quot;font-size: 20px;&quot;&gt;4&lt;/font&gt;&lt;/sub&gt;" style="text;html=1;align=center;verticalAlign=middle;resizable=0;points=[];autosize=1;strokeColor=none;fillColor=none;fontSize=20;strokeWidth=1.5;fontFamily=Times New Roman;" parent="1" vertex="1">
          <mxGeometry x="15" y="360" width="50" height="40" as="geometry" />
        </mxCell>
        <mxCell id="I3WCL8Kk21TBKCjXJNJt-35" value="m&lt;sub style=&quot;font-size: 20px;&quot;&gt;&lt;font style=&quot;font-size: 20px;&quot;&gt;5&lt;/font&gt;&lt;/sub&gt;" style="text;html=1;align=center;verticalAlign=middle;resizable=0;points=[];autosize=1;strokeColor=none;fillColor=none;fontSize=20;strokeWidth=1.5;fontFamily=Times New Roman;" parent="1" vertex="1">
          <mxGeometry x="15" y="400" width="50" height="40" as="geometry" />
        </mxCell>
        <mxCell id="I3WCL8Kk21TBKCjXJNJt-36" value="" style="rounded=0;whiteSpace=wrap;html=1;fontSize=20;strokeWidth=1.5;strokeColor=#4D4D4D;fontFamily=Times New Roman;" parent="1" vertex="1">
          <mxGeometry x="190" y="330" width="100" height="30" as="geometry" />
        </mxCell>
        <mxCell id="I3WCL8Kk21TBKCjXJNJt-37" value="" style="rounded=0;whiteSpace=wrap;html=1;fontSize=20;strokeWidth=1.5;strokeColor=#4D4D4D;fontFamily=Times New Roman;" parent="1" vertex="1">
          <mxGeometry x="250" y="410" width="105" height="30" as="geometry" />
        </mxCell>
        <mxCell id="I3WCL8Kk21TBKCjXJNJt-38" value="" style="rounded=0;whiteSpace=wrap;html=1;fontSize=20;strokeWidth=1.5;strokeColor=#4D4D4D;fontFamily=Times New Roman;fillColor=#E5FFBE;" parent="1" vertex="1">
          <mxGeometry x="140" y="250" width="20" height="30" as="geometry" />
        </mxCell>
        <mxCell id="I3WCL8Kk21TBKCjXJNJt-40" value="" style="rounded=0;whiteSpace=wrap;html=1;fontSize=20;strokeWidth=1.5;strokeColor=#4D4D4D;fontFamily=Times New Roman;fillColor=#E5FFBE;" parent="1" vertex="1">
          <mxGeometry x="182" y="290" width="30" height="30" as="geometry" />
        </mxCell>
        <mxCell id="I3WCL8Kk21TBKCjXJNJt-41" value="" style="rounded=0;whiteSpace=wrap;html=1;fontSize=20;strokeWidth=1.5;strokeColor=#4D4D4D;fontFamily=Times New Roman;fillColor=#E5FFBE;" parent="1" vertex="1">
          <mxGeometry x="245" y="330" width="20" height="30" as="geometry" />
        </mxCell>
        <mxCell id="I3WCL8Kk21TBKCjXJNJt-42" value="" style="rounded=0;whiteSpace=wrap;html=1;fontSize=20;strokeWidth=1.5;strokeColor=#4D4D4D;fontFamily=Times New Roman;fillColor=#E5FFBE;" parent="1" vertex="1">
          <mxGeometry x="250" y="370" width="20" height="30" as="geometry" />
        </mxCell>
        <mxCell id="I3WCL8Kk21TBKCjXJNJt-43" value="" style="rounded=0;whiteSpace=wrap;html=1;fontSize=20;strokeWidth=1.5;strokeColor=#4D4D4D;fontFamily=Times New Roman;fillColor=#E5FFBE;" parent="1" vertex="1">
          <mxGeometry x="290" y="410" width="35" height="30" as="geometry" />
        </mxCell>
        <mxCell id="I3WCL8Kk21TBKCjXJNJt-44" value="" style="rounded=0;whiteSpace=wrap;html=1;fontSize=20;strokeWidth=1.5;strokeColor=#4D4D4D;fontFamily=Times New Roman;fillColor=#E5FFBE;" parent="1" vertex="1">
          <mxGeometry x="141" y="216" width="20" height="10" as="geometry" />
        </mxCell>
        <mxCell id="I3WCL8Kk21TBKCjXJNJt-46" value="" style="rounded=0;whiteSpace=wrap;html=1;fontSize=20;strokeWidth=1.5;strokeColor=#4D4D4D;fontFamily=Times New Roman;fillColor=#E5FFBE;" parent="1" vertex="1">
          <mxGeometry x="184" y="216" width="30" height="10" as="geometry" />
        </mxCell>
        <mxCell id="I3WCL8Kk21TBKCjXJNJt-49" value="" style="rounded=0;whiteSpace=wrap;html=1;fontSize=20;strokeWidth=1.5;strokeColor=#4D4D4D;fontFamily=Times New Roman;fillColor=#E5FFBE;" parent="1" vertex="1">
          <mxGeometry x="245" y="216" width="20" height="10" as="geometry" />
        </mxCell>
        <mxCell id="I3WCL8Kk21TBKCjXJNJt-51" value="" style="rounded=0;whiteSpace=wrap;html=1;fontSize=20;strokeWidth=1.5;strokeColor=#4D4D4D;fontFamily=Times New Roman;fillColor=#E5FFBE;" parent="1" vertex="1">
          <mxGeometry x="250" y="216" width="20" height="10" as="geometry" />
        </mxCell>
        <mxCell id="I3WCL8Kk21TBKCjXJNJt-52" value="" style="rounded=0;whiteSpace=wrap;html=1;fontSize=20;strokeWidth=1.5;strokeColor=#4D4D4D;fontFamily=Times New Roman;fillColor=#E5FFBE;" parent="1" vertex="1">
          <mxGeometry x="290" y="216" width="35" height="10" as="geometry" />
        </mxCell>
        <mxCell id="I3WCL8Kk21TBKCjXJNJt-60" value="" style="endArrow=none;html=1;rounded=0;exitX=1;exitY=0.25;exitDx=0;exitDy=0;endFill=0;dashed=1;fontSize=20;fontFamily=Times New Roman;" parent="1" source="I3WCL8Kk21TBKCjXJNJt-57" edge="1">
          <mxGeometry width="50" height="50" relative="1" as="geometry">
            <mxPoint x="390" y="310" as="sourcePoint" />
            <mxPoint x="520" y="180" as="targetPoint" />
          </mxGeometry>
        </mxCell>
        <mxCell id="I3WCL8Kk21TBKCjXJNJt-61" value="" style="endArrow=none;html=1;rounded=0;exitX=1;exitY=0.75;exitDx=0;exitDy=0;endFill=0;dashed=1;fontSize=20;fontFamily=Times New Roman;" parent="1" source="I3WCL8Kk21TBKCjXJNJt-57" edge="1">
          <mxGeometry width="50" height="50" relative="1" as="geometry">
            <mxPoint x="350" y="220" as="sourcePoint" />
            <mxPoint x="520" y="410" as="targetPoint" />
          </mxGeometry>
        </mxCell>
        <mxCell id="I3WCL8Kk21TBKCjXJNJt-76" value="" style="rounded=0;whiteSpace=wrap;html=1;fontSize=20;strokeWidth=1.5;strokeColor=#4D4D4D;fontFamily=Times New Roman;fillColor=#97D077;" parent="1" vertex="1">
          <mxGeometry x="250" y="216" width="15" height="10" as="geometry" />
        </mxCell>
        <mxCell id="I3WCL8Kk21TBKCjXJNJt-81" value="" style="rounded=0;whiteSpace=wrap;html=1;fontSize=20;strokeWidth=1.5;strokeColor=#4D4D4D;fontFamily=Times New Roman;fillColor=#E5FFBE;aspect=fixed;" parent="1" vertex="1">
          <mxGeometry x="507" y="231" width="32" height="16" as="geometry" />
        </mxCell>
        <mxCell id="I3WCL8Kk21TBKCjXJNJt-82" value="" style="rounded=0;whiteSpace=wrap;html=1;fontSize=20;strokeWidth=1.5;strokeColor=#4D4D4D;fontFamily=Times New Roman;fillColor=#E5FFBE;aspect=fixed;" parent="1" vertex="1">
          <mxGeometry x="585.8757396449704" y="231" width="48" height="16" as="geometry" />
        </mxCell>
        <mxCell id="I3WCL8Kk21TBKCjXJNJt-83" value="" style="rounded=0;whiteSpace=wrap;html=1;fontSize=18;strokeWidth=1.5;strokeColor=#4D4D4D;fontFamily=Times New Roman;fillColor=#E5FFBE;aspect=fixed;" parent="1" vertex="1">
          <mxGeometry x="697.7692307692307" y="231" width="32" height="16" as="geometry" />
        </mxCell>
        <mxCell id="I3WCL8Kk21TBKCjXJNJt-84" value="" style="rounded=0;whiteSpace=wrap;html=1;fontSize=18;strokeWidth=1.5;strokeColor=#4D4D4D;fontFamily=Times New Roman;fillColor=#E5FFBE;aspect=fixed;" parent="1" vertex="1">
          <mxGeometry x="717.0008284023668" y="294.99869565217386" width="32" height="16" as="geometry" />
        </mxCell>
        <mxCell id="I3WCL8Kk21TBKCjXJNJt-85" value="" style="rounded=0;whiteSpace=wrap;html=1;fontSize=18;strokeWidth=1.5;strokeColor=#4D4D4D;fontFamily=Times New Roman;fillColor=#E5FFBE;aspect=fixed;" parent="1" vertex="1">
          <mxGeometry x="756.9988165680473" y="255" width="56" height="16" as="geometry" />
        </mxCell>
        <mxCell id="I3WCL8Kk21TBKCjXJNJt-90" value="" style="rounded=0;whiteSpace=wrap;html=1;fontSize=20;strokeWidth=1.5;strokeColor=#4D4D4D;fontFamily=Times New Roman;fillColor=#BECEFF;" parent="1" vertex="1">
          <mxGeometry x="539" y="231" width="18" height="16" as="geometry" />
        </mxCell>
        <mxCell id="I3WCL8Kk21TBKCjXJNJt-91" value="" style="rounded=0;whiteSpace=wrap;html=1;fontSize=18;strokeWidth=1.5;strokeColor=#4D4D4D;fontFamily=Times New Roman;fillColor=#BECEFF;" parent="1" vertex="1">
          <mxGeometry x="633.88" y="231" width="33.12" height="16" as="geometry" />
        </mxCell>
        <mxCell id="I3WCL8Kk21TBKCjXJNJt-93" value="" style="rounded=0;whiteSpace=wrap;html=1;fontSize=18;strokeWidth=1.5;strokeColor=#4D4D4D;fontFamily=Times New Roman;fillColor=#BECEFF;" parent="1" vertex="1">
          <mxGeometry x="749" y="295" width="23.12" height="16" as="geometry" />
        </mxCell>
        <mxCell id="I3WCL8Kk21TBKCjXJNJt-96" value="" style="rounded=0;whiteSpace=wrap;html=1;fontSize=18;strokeWidth=1.5;strokeColor=#4D4D4D;fontFamily=Times New Roman;fillColor=#BECEFF;" parent="1" vertex="1">
          <mxGeometry x="808.56" y="387" width="18" height="16" as="geometry" />
        </mxCell>
        <mxCell id="I3WCL8Kk21TBKCjXJNJt-97" value="" style="endArrow=classic;html=1;rounded=0;fontSize=20;strokeWidth=2;fontFamily=Times New Roman;" parent="1" edge="1">
          <mxGeometry width="50" height="50" relative="1" as="geometry">
            <mxPoint x="487" y="216.43" as="sourcePoint" />
            <mxPoint x="840" y="216" as="targetPoint" />
          </mxGeometry>
        </mxCell>
        <mxCell id="I3WCL8Kk21TBKCjXJNJt-98" value="" style="rounded=0;whiteSpace=wrap;html=1;fontSize=18;strokeWidth=1.5;strokeColor=#4D4D4D;fontFamily=Times New Roman;fillColor=#E5FFBE;" parent="1" vertex="1">
          <mxGeometry x="808" y="361" width="19.12" height="16" as="geometry" />
        </mxCell>
        <mxCell id="I3WCL8Kk21TBKCjXJNJt-100" value="" style="endArrow=none;dashed=1;html=1;strokeWidth=1;rounded=0;fontSize=18;fontFamily=Times New Roman;" parent="1" edge="1">
          <mxGeometry width="50" height="50" relative="1" as="geometry">
            <mxPoint x="730" y="310" as="sourcePoint" />
            <mxPoint x="729.77" y="239" as="targetPoint" />
          </mxGeometry>
        </mxCell>
        <mxCell id="I3WCL8Kk21TBKCjXJNJt-101" value="" style="endArrow=none;dashed=1;html=1;strokeWidth=1;rounded=0;fontSize=18;fontFamily=Times New Roman;" parent="1" edge="1">
          <mxGeometry width="50" height="50" relative="1" as="geometry">
            <mxPoint x="772.12" y="303.5" as="sourcePoint" />
            <mxPoint x="772.12" y="255" as="targetPoint" />
          </mxGeometry>
        </mxCell>
        <mxCell id="I3WCL8Kk21TBKCjXJNJt-102" value="st1" style="text;html=1;align=center;verticalAlign=middle;resizable=0;points=[];autosize=1;strokeColor=none;fillColor=none;fontSize=18;fontFamily=Times New Roman;" parent="1" vertex="1">
          <mxGeometry x="666" y="219" width="40" height="40" as="geometry" />
        </mxCell>
        <mxCell id="I3WCL8Kk21TBKCjXJNJt-103" value="st2" style="text;html=1;align=center;verticalAlign=middle;resizable=0;points=[];autosize=1;strokeColor=none;fillColor=none;fontSize=18;fontFamily=Times New Roman;" parent="1" vertex="1">
          <mxGeometry x="681" y="283" width="40" height="40" as="geometry" />
        </mxCell>
        <mxCell id="I3WCL8Kk21TBKCjXJNJt-104" value="st3" style="text;html=1;align=center;verticalAlign=middle;resizable=0;points=[];autosize=1;strokeColor=none;fillColor=none;fontSize=18;fontFamily=Times New Roman;" parent="1" vertex="1">
          <mxGeometry x="723" y="244" width="40" height="40" as="geometry" />
        </mxCell>
        <mxCell id="I3WCL8Kk21TBKCjXJNJt-105" value="ed1" style="text;html=1;align=center;verticalAlign=middle;resizable=0;points=[];autosize=1;strokeColor=none;fillColor=none;fontSize=18;fontFamily=Times New Roman;" parent="1" vertex="1">
          <mxGeometry x="719.77" y="219" width="50" height="40" as="geometry" />
        </mxCell>
        <mxCell id="I3WCL8Kk21TBKCjXJNJt-106" value="ed2+δ23" style="text;html=1;align=center;verticalAlign=middle;resizable=0;points=[];autosize=1;strokeColor=none;fillColor=none;fontSize=18;fontFamily=Times New Roman;" parent="1" vertex="1">
          <mxGeometry x="762.12" y="285" width="90" height="40" as="geometry" />
        </mxCell>
        <mxCell id="I3WCL8Kk21TBKCjXJNJt-107" value="ed3" style="text;html=1;align=center;verticalAlign=middle;resizable=0;points=[];autosize=1;strokeColor=none;fillColor=none;fontSize=18;fontFamily=Times New Roman;" parent="1" vertex="1">
          <mxGeometry x="803" y="243" width="50" height="40" as="geometry" />
        </mxCell>
        <mxCell id="I3WCL8Kk21TBKCjXJNJt-108" value="任务执行时间片" style="text;html=1;align=center;verticalAlign=middle;resizable=0;points=[];autosize=1;strokeColor=none;fillColor=none;fontSize=18;fontFamily=Times New Roman;" parent="1" vertex="1">
          <mxGeometry x="660" y="349" width="150" height="40" as="geometry" />
        </mxCell>
        <mxCell id="I3WCL8Kk21TBKCjXJNJt-109" value="姿态调整时间" style="text;html=1;align=center;verticalAlign=middle;resizable=0;points=[];autosize=1;strokeColor=none;fillColor=none;fontSize=18;fontFamily=Times New Roman;" parent="1" vertex="1">
          <mxGeometry x="678" y="375" width="130" height="40" as="geometry" />
        </mxCell>
        <mxCell id="I3WCL8Kk21TBKCjXJNJt-111" value="" style="endArrow=none;dashed=1;html=1;strokeWidth=1;rounded=0;fontSize=18;fontFamily=Times New Roman;" parent="1" edge="1">
          <mxGeometry width="50" height="50" relative="1" as="geometry">
            <mxPoint x="757.12" y="310.5" as="sourcePoint" />
            <mxPoint x="757.12" y="262" as="targetPoint" />
          </mxGeometry>
        </mxCell>
        <mxCell id="I3WCL8Kk21TBKCjXJNJt-113" value="" style="endArrow=none;dashed=1;html=1;strokeWidth=1;rounded=0;fontSize=18;fontFamily=Times New Roman;" parent="1" edge="1">
          <mxGeometry width="50" height="50" relative="1" as="geometry">
            <mxPoint x="717" y="301" as="sourcePoint" />
            <mxPoint x="716.77" y="230" as="targetPoint" />
          </mxGeometry>
        </mxCell>
      </root>
    </mxGraphModel>
  </diagram>
</mxfile>
